<svg xmlns="http://www.w3.org/2000/svg" width="81.344" height="80" viewBox="0 0 81.344 80">
  <g id="icon-estados-brasileiros" transform="translate(-608.134 -460.709)">
    <g id="Grupo_117" data-name="Grupo 117" transform="translate(608.134 460.709)">
      <g id="Grupo_116" data-name="Grupo 116">
        <path id="Caminho_64" data-name="Caminho 64" d="M635.293,515.72c3.35,4.723,6.695,8.948,8.911,11.669.323.4.625.763.918,1.117h-6.689a1.356,1.356,0,0,0,0,2.711h21.691a1.356,1.356,0,1,0,0-2.711h-6.691c.29-.354.6-.721.919-1.117,2.215-2.711,5.558-6.946,8.91-11.669a119.321,119.321,0,0,0,8.956-14.435c2.768-5.436,4.173-9.953,4.173-13.415a27.1,27.1,0,0,0-7.94-19.2,1.355,1.355,0,1,0-1.918,1.915,24.4,24.4,0,0,1,7.151,17.283c0,3.034-1.3,7.134-3.878,12.184a116.553,116.553,0,0,1-8.753,14.1c-3.306,4.662-6.609,8.84-8.8,11.524-.728.892-1.383,1.681-1.941,2.348a1.374,1.374,0,0,1-1.938.129,1.448,1.448,0,0,1-.128-.129c-.559-.667-1.214-1.456-1.941-2.348-2.19-2.682-5.493-6.861-8.8-11.524a116.317,116.317,0,0,1-8.753-14.1c-2.576-5.05-3.878-9.15-3.878-12.184a24.409,24.409,0,0,1,33.905-22.52,1.357,1.357,0,0,0,1.063-2.5,27.124,27.124,0,0,0-37.681,25.016c0,3.465,1.405,7.979,4.173,13.422A118.921,118.921,0,0,0,635.293,515.72Z" transform="translate(-608.607 -460.709)"/>
        <path id="Caminho_65" data-name="Caminho 65" d="M649.752,476.059a1.356,1.356,0,1,0,0-2.711,13.556,13.556,0,1,0,9.587,3.971,1.356,1.356,0,0,0-1.917,1.917h0a10.846,10.846,0,1,1-7.67-3.176Z" transform="translate(-609.079 -461.135)" fill="#ffce00"/>
        <path id="Caminho_66" data-name="Caminho 66" d="M688.968,536.691l-8.338-14.913a4.215,4.215,0,0,0-3.689-2.126h-9.663a1.356,1.356,0,0,0,0,2.711h9.663a1.506,1.506,0,0,1,1.325.74l8.332,14.909a1.221,1.221,0,0,1-.013,1.256,1.494,1.494,0,0,1-1.312.719H612.337a1.492,1.492,0,0,1-1.311-.719,1.217,1.217,0,0,1-.013-1.256l8.335-14.913a1.5,1.5,0,0,1,1.323-.74h9.663a1.356,1.356,0,1,0,0-2.711h-9.663a4.216,4.216,0,0,0-3.691,2.126l-8.336,14.917a3.928,3.928,0,0,0,.042,3.946,4.176,4.176,0,0,0,3.651,2.058h72.938a4.176,4.176,0,0,0,3.65-2.058A3.933,3.933,0,0,0,688.968,536.691Z" transform="translate(-608.134 -462.695)"/>
        <path id="Caminho_67" data-name="Caminho 67" d="M676.5,526.662h-5.423a1.352,1.352,0,0,0-.753.228l-4.067,2.711a1.356,1.356,0,1,0,1.5,2.256l3.721-2.483H676.5a1.356,1.356,0,0,0,0-2.711Z" transform="translate(-610.072 -462.932)" fill="#ffce00"/>
        <path id="Caminho_68" data-name="Caminho 68" d="M668.464,536.436a1.352,1.352,0,0,0,1.353,1.353h10.846a1.356,1.356,0,0,0,0-2.711H669.82a1.352,1.352,0,0,0-1.356,1.35Z" transform="translate(-610.167 -463.215)" fill="#ffce00"/>
        <path id="Caminho_69" data-name="Caminho 69" d="M633.011,532.085a1.353,1.353,0,0,0,.754-2.483L629.7,526.89a1.363,1.363,0,0,0-.754-.228h-5.423a1.356,1.356,0,0,0,0,2.711h5.016l3.726,2.483A1.354,1.354,0,0,0,633.011,532.085Z" transform="translate(-608.607 -462.932)" fill="#ffce00"/>
        <path id="Caminho_70" data-name="Caminho 70" d="M619.312,535.08a1.356,1.356,0,1,0,0,2.711h10.846a1.356,1.356,0,1,0,0-2.711Z" transform="translate(-608.465 -463.216)" fill="#ffce00"/>
      </g>
    </g>
  </g>
</svg>
