<svg
  xmlns="http://www.w3.org/2000/svg"
  width="92.802"
  height="116"
  viewBox="0 0 92.802 116"
>
  <g id="icon-comercializacao" class="inverter" transform="translate(-467.388 -500)">
    <path
      id="Caminho_32"
      data-name="Caminho 32"
      d="M506.27,511.04a1.839,1.839,0,0,0,1.839-1.839h0v-7.36a1.84,1.84,0,1,0-3.68,0v7.36a1.84,1.84,0,0,0,1.839,1.839Z"
      transform="translate(7.519 0)"
      fill="#ffce00"
    />
    <path
      id="Caminho_33"
      data-name="Caminho 33"
      d="M486.2,507.476l3.68,6.376a1.839,1.839,0,0,0,3.2-1.818l-.012-.022-3.68-6.376a1.84,1.84,0,1,0-3.2,1.819Z"
      transform="translate(3.766 0.955)"
      fill="#ffce00"
    />
    <path
      id="Caminho_34"
      data-name="Caminho 34"
      d="M473,521.969l.022.012,6.376,3.68a1.84,1.84,0,0,0,1.861-3.175l-.022-.012-6.376-3.68A1.84,1.84,0,0,0,473,521.969Z"
      transform="translate(0.955 3.763)"
      fill="#ffce00"
    />
    <path
      id="Caminho_35"
      data-name="Caminho 35"
      d="M478.427,538.866a1.839,1.839,0,0,0-1.839-1.839h-7.36a1.84,1.84,0,0,0,0,3.68h7.36a1.839,1.839,0,0,0,1.839-1.839Z"
      transform="translate(0 7.516)"
      fill="#ffce00"
    />
    <path
      id="Caminho_36"
      data-name="Caminho 36"
      d="M479.417,552.648l-.022.013-6.376,3.679a1.842,1.842,0,0,0,1.826,3.2h0l.022-.012,6.376-3.68a1.84,1.84,0,0,0-1.818-3.2Z"
      transform="translate(0.955 10.638)"
      fill="#ffce00"
    />
    <path
      id="Caminho_37"
      data-name="Caminho 37"
      d="M540.617,556.353l-.022-.013-6.376-3.679a1.84,1.84,0,1,0-1.861,3.175l.022.012,6.376,3.68a1.839,1.839,0,1,0,1.861-3.173h0Z"
      transform="translate(13.003 10.638)"
      fill="#ffce00"
    />
    <path
      id="Caminho_38"
      data-name="Caminho 38"
      d="M544.553,537.027h-7.359a1.84,1.84,0,0,0,0,3.68h7.359a1.84,1.84,0,1,0,0-3.68Z"
      transform="translate(13.796 7.516)"
      fill="#ffce00"
    />
    <path
      id="Caminho_39"
      data-name="Caminho 39"
      d="M533.3,525.906a1.85,1.85,0,0,0,.92-.241l6.376-3.68a1.84,1.84,0,1,0-1.819-3.2l-.022.012-6.376,3.68a1.84,1.84,0,0,0,.92,3.433Z"
      transform="translate(13.006 3.764)"
      fill="#ffce00"
    />
    <path
      id="Caminho_40"
      data-name="Caminho 40"
      d="M520.768,514.522h0a1.84,1.84,0,0,0,2.513-.675h0l3.68-6.376a1.84,1.84,0,1,0-3.175-1.861h0l-.012.02-3.68,6.377A1.842,1.842,0,0,0,520.768,514.522Z"
      transform="translate(10.648 0.954)"
      fill="#ffce00"
    />
    <path
      id="Caminho_41"
      data-name="Caminho 41"
      d="M512.433,569.716a1.839,1.839,0,0,0,1.839-1.839h0V547.639h3.68a7.359,7.359,0,1,0-7.359-7.36v3.681h-3.68v-3.681a7.359,7.359,0,1,0-7.359,7.36h3.68v20.237a1.84,1.84,0,1,0,3.68,0V547.639H510.6v20.237A1.84,1.84,0,0,0,512.433,569.716Zm1.839-29.437a3.68,3.68,0,1,1,3.68,3.68h-3.68Zm-11.039,3.68h-3.68a3.68,3.68,0,1,1,3.68-3.68Z"
      transform="translate(5.036 6.682)"
      fill="#ffce00"
    />
    <path
      id="Caminho_42"
      data-name="Caminho 42"
      d="M512.84,512.274a31.486,31.486,0,0,0-33.166,29.632,30.943,30.943,0,0,0,11.549,25.584,5.774,5.774,0,0,1,2.262,4.451v4.571a5.851,5.851,0,0,0,3.96,5.484V584.3a5.757,5.757,0,0,0,1.545,3.9,5.686,5.686,0,0,0,0,7.79,5.754,5.754,0,0,0,.285,8.13l.1.089a5.969,5.969,0,0,0,4.012,1.519,1.916,1.916,0,0,0,1.98-1.849,1.873,1.873,0,0,0-.352-1.144,1.274,1.274,0,0,0-.772-.692c-.058-.029-.12-.054-.174-.076a2.155,2.155,0,0,0-.623-.121c-.019,0-.037-.011-.058-.011a1.948,1.948,0,0,1,0-3.9H511.3a1.948,1.948,0,1,0,0-3.9h-7.92a1.948,1.948,0,1,1,0-3.9h7.92a1.948,1.948,0,1,0,0-3.9h-7.924a1.964,1.964,0,0,1-1.98-1.948v-1.948h9.9a1.948,1.948,0,1,0,0-3.9H499.423a1.964,1.964,0,0,1-1.98-1.948v-4.571a9.622,9.622,0,0,0-3.712-7.469,26.962,26.962,0,0,1-4.2-37.9q.191-.24.389-.476a27.8,27.8,0,0,1,49.112,17.14,26.934,26.934,0,0,1-10.287,21.353,9.6,9.6,0,0,0-3.574,7.579v4.342a1.963,1.963,0,0,1-1.98,1.948h-5.94a1.948,1.948,0,0,0,0,3.9h3.963V584.3a1.963,1.963,0,0,1-1.98,1.948h-1.98a1.948,1.948,0,0,0,0,3.9h1.982a1.948,1.948,0,1,1,0,3.9h-1.98a1.948,1.948,0,0,0,0,3.9h1.98a1.948,1.948,0,0,1,0,3.9h-9.9a1.948,1.948,0,1,0,0,3.9H516.9a5.988,5.988,0,0,1-10.041,1.934,2,2,0,0,0-2.8-.16,1.925,1.925,0,0,0-.192,2.715l.03.035a9.995,9.995,0,0,0,13.946.818,9.675,9.675,0,0,0,3.184-5.654,5.742,5.742,0,0,0,2.584-9.431,5.684,5.684,0,0,0,0-7.791,5.75,5.75,0,0,0,1.545-3.9v-2.306a5.85,5.85,0,0,0,3.96-5.484v-4.342a5.817,5.817,0,0,1,2.1-4.552,30.785,30.785,0,0,0,11.76-24.413A31.757,31.757,0,0,0,512.84,512.274Z"
      transform="translate(2.487 2.482)"
    />
  </g>
</svg>
