<svg xmlns="http://www.w3.org/2000/svg" width="99.996" height="100" viewBox="0 0 99.996 100">
  <g id="icone-auto-producao" transform="translate(-0.011 0)">
    <g id="Grupo_378" data-name="Grupo 378" transform="translate(36.768 31.062)">
      <path id="Caminho_140" data-name="Caminho 140" d="M195.063,196.573a3.633,3.633,0,0,1-1.838-4.6c1.143-2.955,2.306-5.6,3.564-8.6-2.23-1.274-4.48-2.544-6.712-3.892a3.765,3.765,0,0,1-1.845-2.816,3.814,3.814,0,0,1,1.221-3.184c4.672-4.427,9.318-8.8,14.012-13.267a3.771,3.771,0,0,1,5.815.415,3.6,3.6,0,0,1,.4,3.351c-1.125,2.905-2.36,5.794-3.561,8.613q3.292,1.9,6.583,3.807a3.847,3.847,0,0,1,1.968,2.868,3.79,3.79,0,0,1-1.216,3.205c-4.637,4.4-9.366,8.87-14.016,13.27a3.62,3.62,0,0,1-4.372.832Zm11.14-33.981c-.427.27-9.31,8.772-14.286,13.488-.171.162-.178.217.012.331,2.573,1.552,5.19,3.012,7.779,4.5a2.021,2.021,0,0,1,.9,2.618c-1.4,3.327-2.78,6.469-4.043,9.733-.022.057.064.088.1.1.473-.232,9.372-8.8,14.318-13.494.2-.19.186-.219-.072-.367-2.578-1.482-5.147-2.979-7.722-4.465a2.022,2.022,0,0,1-.894-2.622c1.354-3.2,2.771-6.464,4.038-9.733C206.333,162.663,206.3,162.612,206.2,162.592Z" transform="translate(-188.211 -159.04)" fill="#ffce00"/>
    </g>
    <g id="Grupo_383" data-name="Grupo 383" transform="translate(0.011 -0.001)">
      <g id="Grupo_379" data-name="Grupo 379" transform="translate(0.003 0.002)">
        <path id="Caminho_141" data-name="Caminho 141" d="M2.553,47.007A2.383,2.383,0,0,1,.277,44.894,32.9,32.9,0,0,1,13.464,14.328,1.465,1.465,0,1,1,15.2,16.691,29.981,29.981,0,0,0,2.966,41.652,32.864,32.864,0,0,1,29.228,19.33,2.387,2.387,0,0,1,31.957,21.4l.6,4.924,9.951-12.736L29.776,3.636l.611,4.975a2.371,2.371,0,0,1-2.009,2.647,29.849,29.849,0,0,0-8.465,2.6,1.465,1.465,0,0,1-1.268-2.641,32.758,32.758,0,0,1,8.77-2.775l-.707-5.757A2.385,2.385,0,0,1,30.543.518l14.2,11.1a2.385,2.385,0,0,1,.411,3.348l-11.1,14.2a2.385,2.385,0,0,1-4.247-1.178l-.7-5.669A29.929,29.929,0,0,0,5.045,45.123a2.4,2.4,0,0,1-2.492,1.884Z" transform="translate(-0.026 -0.011)"/>
      </g>
      <g id="Grupo_380" data-name="Grupo 380" transform="translate(52.996 0)">
        <path id="Caminho_142" data-name="Caminho 142" d="M304.864,45.641a2.367,2.367,0,0,1-1.464-.506l-14.2-11.1a2.385,2.385,0,0,1,1.178-4.247l5.669-.7A29.929,29.929,0,0,0,273.239,5.024a2.4,2.4,0,0,1-1.884-2.492A2.412,2.412,0,0,1,273.527.248a32.843,32.843,0,0,1,36.389,27.145l5.757-.707a2.385,2.385,0,0,1,2.17,3.835l-11.1,14.2a2.369,2.369,0,0,1-1.589.9,2.4,2.4,0,0,1-.3.018Zm-12.825-13.1,12.736,9.951,9.951-12.736-4.975.611a2.371,2.371,0,0,1-2.647-2.009A29.918,29.918,0,0,0,276.7,2.943a32.863,32.863,0,0,1,22.329,26.264,2.387,2.387,0,0,1-2.068,2.729Zm4.1-2.891h0Z" transform="translate(-271.351 0.001)"/>
      </g>
      <g id="Grupo_381" data-name="Grupo 381" transform="translate(54.357 52.998)">
        <path id="Caminho_143" data-name="Caminho 143" d="M294.9,318.35a2.379,2.379,0,0,1-1.467-.507l-14.2-11.1a2.385,2.385,0,0,1-.411-3.348l11.1-14.2a2.385,2.385,0,0,1,4.247,1.178l.7,5.669a29.929,29.929,0,0,0,24.073-22.807,2.424,2.424,0,0,1,4.768.229,32.822,32.822,0,0,1-12.133,29.76,1.465,1.465,0,1,1-1.827-2.29,29.888,29.888,0,0,0,11.271-24.229,32.863,32.863,0,0,1-26.262,22.323,2.387,2.387,0,0,1-2.729-2.068l-.6-4.924-9.951,12.736,12.736,9.951-.611-4.975A2.371,2.371,0,0,1,295.6,307.1a29.775,29.775,0,0,0,9.672-3.216,1.465,1.465,0,0,1,1.387,2.58,32.67,32.67,0,0,1-10.1,3.449l.707,5.757a2.389,2.389,0,0,1-2.368,2.677Z" transform="translate(-278.317 -271.351)"/>
      </g>
      <g id="Grupo_382" data-name="Grupo 382" transform="translate(0 54.359)">
        <path id="Caminho_144" data-name="Caminho 144" d="M40.779,323.958A32.853,32.853,0,0,1,8.445,296.564l-5.757.707a2.385,2.385,0,0,1-2.17-3.835l11.1-14.2a2.385,2.385,0,0,1,3.348-.411l14.2,11.1a2.385,2.385,0,0,1-1.178,4.247l-5.669.7a29.929,29.929,0,0,0,22.807,24.073,2.424,2.424,0,0,1-.288,4.775,33.28,33.28,0,0,1-4.055.249Zm3.69-2.168h0ZM8.91,293.574a2.369,2.369,0,0,1,2.348,2.027,29.918,29.918,0,0,0,30.4,25.414A32.863,32.863,0,0,1,19.33,294.751a2.387,2.387,0,0,1,2.068-2.729l4.924-.6-12.736-9.951L3.636,294.2l4.975-.611A2.419,2.419,0,0,1,8.91,293.574Z" transform="translate(-0.011 -278.317)"/>
      </g>
    </g>
  </g>
</svg>
