<svg xmlns="http://www.w3.org/2000/svg" width="111.81" height="110" viewBox="0 0 111.81 110">
  <g id="icon-consultoria" transform="translate(-256.634 -507)">
    <g id="Grupo_30" data-name="Grupo 30" transform="translate(256.634 507)">
      <path id="Caminho_30" data-name="Caminho 30" d="M362.63,507H262.448a5.727,5.727,0,0,0-.174,11.453h.174v78.263a1.916,1.916,0,0,0,1.927,1.907h22.962l-12.908,15.987L277.439,617l14.836-18.37h18.337v4.17a5.712,5.712,0,0,0-3.538,7.262l.016.045a5.794,5.794,0,0,0,7.376,3.491,5.71,5.71,0,0,0,0-10.8v-4.17H332.8L347.639,617l3.009-2.388L337.74,598.626H360.7a1.916,1.916,0,0,0,1.927-1.907h0V518.455A5.727,5.727,0,0,0,362.8,507Q362.717,507,362.63,507ZM312.539,610.079a1.91,1.91,0,1,1,1.927-1.908,1.911,1.911,0,0,1-1.927,1.908Zm46.238-15.271H266.3V518.452h92.482Zm3.853-80.171H262.448a1.91,1.91,0,0,1-.1-3.818c.033,0,.067,0,.1,0H362.63a1.91,1.91,0,1,1,.1,3.818Z" transform="translate(-256.634 -507)"/>
    </g>
    <g id="Grupo_32" data-name="Grupo 32" transform="translate(274.081 567.995)">
      <rect id="Retângulo_56" data-name="Retângulo 56" width="30.943" height="5.158"/>
    </g>
    <g id="Grupo_34" data-name="Grupo 34" transform="translate(274.081 576.59)">
      <rect id="Retângulo_57" data-name="Retângulo 57" width="30.943" height="1.72"/>
    </g>
    <g id="Grupo_36" data-name="Grupo 36" transform="translate(274.059 583.468)">
      <rect id="Retângulo_58" data-name="Retângulo 58" width="22.348" height="3.438"/>
    </g>
    <g id="Grupo_38" data-name="Grupo 38" transform="translate(287.952 559.4)">
      <rect id="Retângulo_59" data-name="Retângulo 59" width="17.191" height="5.158"/>
    </g>
    <g id="Grupo_40" data-name="Grupo 40" transform="translate(321.076 533.613)">
      <rect id="Retângulo_60" data-name="Retângulo 60" width="29.225" height="3.438"/>
    </g>
    <g id="Grupo_42" data-name="Grupo 42" transform="translate(321.076 540.489)">
      <rect id="Retângulo_61" data-name="Retângulo 61" width="29.225" height="5.158"/>
    </g>
    <g id="Grupo_44" data-name="Grupo 44" transform="translate(321.014 549.085)">
      <rect id="Retângulo_62" data-name="Retângulo 62" width="22.348" height="3.438"/>
    </g>
    <g id="Grupo_46" data-name="Grupo 46" transform="translate(334.863 526.737)">
      <rect id="Retângulo_63" data-name="Retângulo 63" width="15.472" height="3.438"/>
    </g>
    <g id="Grupo_48" class="inverter" data-name="Grupo 48" transform="translate(274.068 524.181)">
      <path id="Caminho_31" data-name="Caminho 31" d="M285.125,520.028A15.271,15.271,0,1,0,300.4,535.3a15.271,15.271,0,0,0-15.271-15.271Zm1.966,4a11.443,11.443,0,0,1,7.265,4.522l-7.322,3.657Zm-8.567,1.935a11.4,11.4,0,0,1,4.761-1.941l-.07,10.513-7.444,7.343A11.424,11.424,0,0,1,278.525,525.962Zm9.94,20.3a11.4,11.4,0,0,1-10.023-1.67l7.841-7.731,9.79-4.9a11.453,11.453,0,0,1-7.609,14.293Z" transform="translate(-269.854 -520.028)" fill="#ffce00"/>
    </g>
    <g id="Grupo_50" class="inverter" data-name="Grupo 50" transform="translate(315.687 576.59)">
      <rect id="Retângulo_64" data-name="Retângulo 64" width="5.158" height="10.314" fill="#ffce00"/>
    </g>
    <g id="Grupo_52" class="inverter" data-name="Grupo 52" transform="translate(347.089 574.872)">
      <rect id="Retângulo_65" data-name="Retângulo 65" width="3.438" height="12.034" fill="#ffce00"/>
    </g>
    <g id="Grupo_54" class="inverter" data-name="Grupo 54" transform="translate(326.081 573.152)">
      <rect id="Retângulo_66" data-name="Retângulo 66" width="1.72" height="13.753" fill="#ffce00"/>
    </g>
    <g id="Grupo_56" class="inverter" data-name="Grupo 56" transform="translate(331.298 564.557)">
      <rect id="Retângulo_67" data-name="Retângulo 67" width="3.438" height="22.348" fill="#ffce00"/>
    </g>
    <g id="Grupo_58" class="inverter" data-name="Grupo 58" transform="translate(339.976 569.714)">
      <rect id="Retângulo_68" data-name="Retângulo 68" width="3.438" height="17.191" fill="#ffce00"/>
    </g>
    <g id="Grupo_60" data-name="Grupo 60" transform="translate(282.702 559.4)">
      <rect id="Retângulo_69" data-name="Retângulo 69" width="3.438" height="5.158"/>
    </g>
    <g id="Grupo_62" data-name="Grupo 62" transform="translate(327.826 526.737)">
      <rect id="Retângulo_70" data-name="Retângulo 70" width="3.438" height="3.438"/>
    </g>
  </g>
</svg>
