<svg xmlns="http://www.w3.org/2000/svg" width="82.676" height="80" viewBox="0 0 82.676 80">
  <g id="icon-Milhoes-Economia" transform="translate(-462.839 -371.133)">
    <g id="Grupo_101" data-name="Grupo 101" transform="translate(497.287 400.15)">
      <g id="Grupo_100" data-name="Grupo 100">
        <path id="Caminho_46" data-name="Caminho 46" d="M507.545,398.344H496.521a1.378,1.378,0,0,0-1.378,1.378h0V438.3a1.378,1.378,0,0,0,1.375,1.381h11.027a1.377,1.377,0,0,0,1.378-1.378h0V399.722a1.378,1.378,0,0,0-1.378-1.378Zm-1.378,38.582H497.9V401.1h8.268Z" transform="translate(-495.143 -398.344)"/>
      </g>
    </g>
    <g id="Grupo_103" data-name="Grupo 103" transform="translate(530.358 394.638)">
      <g id="Grupo_102" data-name="Grupo 102" transform="translate(0)">
        <path id="Caminho_47" data-name="Caminho 47" d="M538.558,393.175H527.534a1.379,1.379,0,0,0-1.378,1.378v44.094a1.378,1.378,0,0,0,1.378,1.378h11.024a1.377,1.377,0,0,0,1.378-1.378V394.553A1.378,1.378,0,0,0,538.558,393.175Zm-1.378,44.094h-8.268V395.931h8.268Z" transform="translate(-526.156 -393.175)"/>
      </g>
    </g>
    <g id="Grupo_105" data-name="Grupo 105" transform="translate(513.823 424.953)">
      <g id="Grupo_104" data-name="Grupo 104" transform="translate(0)">
        <path id="Caminho_48" data-name="Caminho 48" d="M523.052,421.6H512.028a1.378,1.378,0,0,0-1.378,1.378v13.78a1.378,1.378,0,0,0,1.378,1.378h11.024a1.377,1.377,0,0,0,1.378-1.378v-13.78A1.378,1.378,0,0,0,523.052,421.6Zm-1.378,13.78h-8.268V424.359h8.268Z" transform="translate(-510.65 -421.603)"/>
      </g>
    </g>
    <g id="Grupo_107" data-name="Grupo 107" transform="translate(464.217 405.662)">
      <g id="Grupo_106" data-name="Grupo 106">
        <path id="Caminho_49" data-name="Caminho 49" d="M476.533,403.513H465.509a1.378,1.378,0,0,0-1.378,1.378h0v33.07a1.378,1.378,0,0,0,1.378,1.378h11.024a1.377,1.377,0,0,0,1.378-1.378h0v-33.07a1.378,1.378,0,0,0-1.378-1.378Zm-1.378,33.07h-8.269V406.268h8.268Z" transform="translate(-464.131 -403.513)"/>
      </g>
    </g>
    <g id="Grupo_109" data-name="Grupo 109" transform="translate(480.752 413.929)">
      <g id="Grupo_108" data-name="Grupo 108">
        <path id="Caminho_50" data-name="Caminho 50" d="M492.039,411.266H481.015a1.379,1.379,0,0,0-1.378,1.378v24.8a1.378,1.378,0,0,0,1.378,1.378h11.024a1.377,1.377,0,0,0,1.378-1.378v-24.8A1.378,1.378,0,0,0,492.039,411.266Zm-1.378,24.8h-8.268V414.022h8.268Z" transform="translate(-479.637 -411.266)"/>
      </g>
    </g>
    <g id="Grupo_111" data-name="Grupo 111" transform="translate(465.44 371.133)">
      <g id="Grupo_110" data-name="Grupo 110">
        <path id="Caminho_51" data-name="Caminho 51" d="M537.165,371.133a5.552,5.552,0,0,0-3.839,9.6l-11.435,20.981a5.067,5.067,0,0,0-3.141.145l-10.638-15.967a5.512,5.512,0,1,0-9.064-1.3l-8.366,6.962a5.44,5.44,0,0,0-7.338.859l-7.01-3.508a5.6,5.6,0,1,0-1.253,2.453l7.015,3.508a5.512,5.512,0,1,0,10.344-1.19l8.366-6.962a5.322,5.322,0,0,0,5.012.717l10.636,15.966a5.513,5.513,0,1,0,7.855-.357L535.74,382.06a5.4,5.4,0,0,0,1.345.176,5.552,5.552,0,1,0,.08-11.1ZM470.944,390.5a2.755,2.755,0,1,1,2.755-2.756h0a2.754,2.754,0,0,1-2.754,2.757h0Zm16.535,8.268a2.755,2.755,0,1,1,2.757-2.758,2.755,2.755,0,0,1-2.757,2.758h0Zm16.536-13.779a2.755,2.755,0,1,1,2.755-2.756h0A2.755,2.755,0,0,1,504.015,384.993Zm16.535,24.8a2.755,2.755,0,1,1,2.755-2.755h0A2.755,2.755,0,0,1,520.55,409.8Zm16.535-30.31a2.755,2.755,0,1,1,2.755-2.755h0A2.755,2.755,0,0,1,537.085,379.485Z" transform="translate(-465.278 -371.133)" fill="#ffce00"/>
      </g>
    </g>
    <g id="Grupo_113" data-name="Grupo 113" transform="translate(462.839 442.865)">
      <g id="Grupo_112" data-name="Grupo 112">
        <path id="Caminho_52" data-name="Caminho 52" d="M544.138,438.4H464.217a1.379,1.379,0,0,0-1.378,1.378v5.512a1.378,1.378,0,0,0,1.378,1.378h79.921a1.377,1.377,0,0,0,1.378-1.378v-5.512A1.378,1.378,0,0,0,544.138,438.4Zm-1.379,5.511H465.595v-2.755h77.164Z" transform="translate(-462.839 -438.401)"/>
      </g>
    </g>
  </g>
</svg>
