<svg xmlns="http://www.w3.org/2000/svg" width="80.014" height="80" viewBox="0 0 80.014 80">
  <g id="icon-Milhoes-Contrato" transform="translate(-312.605 -461.534)">
    <path id="Caminho_53" data-name="Caminho 53" d="M391.411,479.964a4,4,0,0,0-7.333-.96l-.667,1.16a1.333,1.333,0,0,0-1.813.481l-3.386,5.772-1.161-.667a1.332,1.332,0,1,0-1.366,2.287l.033.02,1.161.666-11.336,19.641-2.8,7.48-1.333,2.493a4,4,0,0,0,.213,4.32l-3,3.68-.84-2.106a2.666,2.666,0,0,0-4.758-.373l-.48.813-.453-5.334a2.666,2.666,0,0,0-5.187-.626l-3.28,9.839a1.333,1.333,0,0,0,.84,1.681,1.182,1.182,0,0,0,.413.1,1.335,1.335,0,0,0,1.268-.906l3.266-9.84.466,5.413a2.667,2.667,0,0,0,4.946,1.147l.493-.814.827,2.093a2.667,2.667,0,0,0,4.56.68l3.1-3.93a4.152,4.152,0,0,0,1.053.133,4,4,0,0,0,3.48-1.975l1.333-2.227,5.081-6.173,11.453-19.881,1.16.667a1.335,1.335,0,0,1,.494,1.824v0l-5.334,9.241a1.324,1.324,0,0,0,2.207,1.461c.017-.025.031-.05.047-.074l5.333-9.241a4,4,0,0,0-1.459-5.464l0,0-1.16-.667,3.334-5.774a1.335,1.335,0,0,0-.48-1.813l.667-1.16A4.007,4.007,0,0,0,391.411,479.964Zm-5.027.373a1.329,1.329,0,0,1,.814-.626,1.4,1.4,0,0,1,1.013.133,1.336,1.336,0,0,1,.627.813,1.409,1.409,0,0,1-.133,1.013l-.667,1.16-2.32-1.333ZM368.21,517.565l-.667-.387-1.973-1.147,1.893-5.068,4.2,2.427Zm-4,3.853a1.332,1.332,0,0,1-.4-1.747l.667-1.159,2.32,1.333-.667,1.147a1.334,1.334,0,0,1-1.821.488c-.034-.02-.067-.04-.1-.062Zm8.974-10.213-4.613-2.666,10.667-18.48,4.613,2.666Zm12-20.79-4.613-2.666,2.666-4.613,4.613,2.666Z" transform="translate(1.062 0.531)"/>
    <path id="Caminho_54" data-name="Caminho 54" d="M333.278,519.31l-4.72,4.707-2.831-2.831a1.334,1.334,0,1,0-1.917,1.857l.036.036,2.827,2.827a2.69,2.69,0,0,0,3.773,0l4.706-4.72a1.333,1.333,0,0,0-1.88-1.88Z" transform="translate(0.372 1.971)" fill="#ffce00"/>
    <path id="Caminho_55" data-name="Caminho 55" d="M317.767,523.143a11.333,11.333,0,0,0,22.667,0,1.333,1.333,0,0,0-2.666,0,8.665,8.665,0,1,1-3.467-6.931,1.333,1.333,0,1,0,1.6-2.133,11.333,11.333,0,0,0-18.134,9.064Z" transform="translate(0.177 1.725)" fill="#ffce00"/>
    <path id="Caminho_56" data-name="Caminho 56" d="M360.207,471.935a1.333,1.333,0,1,0,0-2.666H325.54a1.333,1.333,0,0,0-1.333,1.333h0v5.334a1.334,1.334,0,0,0,1.333,1.333h34.667a1.333,1.333,0,1,0,0-2.666H326.873v-2.668Z" transform="translate(0.398 0.265)" fill="#ffce00"/>
    <path id="Caminho_57" data-name="Caminho 57" d="M329.407,479.582a1.333,1.333,0,0,0,0,2.667h26.667a1.333,1.333,0,0,0,0-2.667Z" transform="translate(0.531 0.619)"/>
    <path id="Caminho_58" data-name="Caminho 58" d="M363.9,488.6H334.565a1.333,1.333,0,0,0,0,2.666H363.9a1.333,1.333,0,1,0,0-2.666Z" transform="translate(0.708 0.929)"/>
    <path id="Caminho_59" data-name="Caminho 59" d="M350.962,497.673a1.334,1.334,0,0,0-1.333-1.333H322.962a1.333,1.333,0,1,0,0,2.666h26.667a1.334,1.334,0,0,0,1.333-1.333Z" transform="translate(0.31 1.194)"/>
    <path id="Caminho_60" data-name="Caminho 60" d="M363.235,496.34H353.9a1.333,1.333,0,1,0,0,2.666h9.334a1.333,1.333,0,1,0,0-2.666Z" transform="translate(1.371 1.194)"/>
    <path id="Caminho_61" data-name="Caminho 61" d="M336.3,505.451a1.333,1.333,0,1,0,0-2.666H322.962a1.333,1.333,0,1,0,0,2.666H336.3Z" transform="translate(0.31 1.415)"/>
    <path id="Caminho_62" data-name="Caminho 62" d="M341.009,505.451h9.334a1.333,1.333,0,1,0,0-2.666h-9.334a1.333,1.333,0,1,0,0,2.666Z" transform="translate(0.929 1.415)"/>
    <path id="Caminho_63" data-name="Caminho 63" d="M372.605,522.868a1.333,1.333,0,0,0-1.333,1.333h0v13.333a1.334,1.334,0,0,1-1.333,1.333H316.6a1.334,1.334,0,0,1-1.333-1.333h0v-72A1.333,1.333,0,0,1,316.6,464.2h53.334a1.334,1.334,0,0,1,1.333,1.333h0v25.041a1.333,1.333,0,1,0,2.666,0V465.534a4,4,0,0,0-4-4H316.6a4,4,0,0,0-4,4v72a4,4,0,0,0,4,4h53.334a4,4,0,0,0,4-4h0V524.2a1.334,1.334,0,0,0-1.333-1.333Z" transform="translate(0 0)"/>
  </g>
</svg>
