<svg xmlns="http://www.w3.org/2000/svg" width="64.001" height="80" viewBox="0 0 64.001 80">
  <g id="icon-anos-experiencia" transform="translate(-467.388 -500)">
    <path id="Caminho_32" data-name="Caminho 32" d="M505.7,507.614a1.268,1.268,0,0,0,1.268-1.269h0v-5.076a1.269,1.269,0,1,0-2.538,0v5.076a1.269,1.269,0,0,0,1.269,1.269Z" transform="translate(-6.31 0)" fill="#ffce00"/>
    <path id="Caminho_33" data-name="Caminho 33" d="M486.12,506.616l2.538,4.4a1.269,1.269,0,0,0,2.2-1.254l-.008-.015-2.538-4.4a1.269,1.269,0,1,0-2.206,1.254Z" transform="translate(-3.161 -0.801)" fill="#ffce00"/>
    <path id="Caminho_34" data-name="Caminho 34" d="M472.72,520.9l.015.008,4.4,2.538a1.269,1.269,0,0,0,1.284-2.189l-.015-.008-4.4-2.538a1.269,1.269,0,0,0-1.283,2.189Z" transform="translate(-0.802 -3.159)" fill="#ffce00"/>
    <path id="Caminho_35" data-name="Caminho 35" d="M475,538.3a1.268,1.268,0,0,0-1.269-1.268h-5.076a1.269,1.269,0,0,0,0,2.538h5.076A1.268,1.268,0,0,0,475,538.3Z" transform="translate(0 -6.308)" fill="#ffce00"/>
    <path id="Caminho_36" data-name="Caminho 36" d="M477.144,552.573l-.015.009-4.4,2.537a1.27,1.27,0,0,0,1.259,2.206h0l.015-.008,4.4-2.538a1.269,1.269,0,0,0-1.254-2.206Z" transform="translate(-0.801 -8.928)" fill="#ffce00"/>
    <path id="Caminho_37" data-name="Caminho 37" d="M537.772,555.128l-.015-.009-4.4-2.537a1.269,1.269,0,1,0-1.284,2.19l.015.008,4.4,2.538a1.269,1.269,0,1,0,1.284-2.189h0Z" transform="translate(-10.913 -8.928)" fill="#ffce00"/>
    <path id="Caminho_38" data-name="Caminho 38" d="M541.7,537.027h-5.075a1.269,1.269,0,0,0,0,2.538H541.7a1.269,1.269,0,1,0,0-2.538Z" transform="translate(-11.579 -6.308)" fill="#ffce00"/>
    <path id="Caminho_39" data-name="Caminho 39" d="M532.732,523.622a1.274,1.274,0,0,0,.635-.166l4.4-2.538a1.269,1.269,0,1,0-1.254-2.206l-.015.008-4.4,2.538a1.269,1.269,0,0,0,.635,2.368Z" transform="translate(-10.916 -3.159)" fill="#ffce00"/>
    <path id="Caminho_40" data-name="Caminho 40" d="M520.483,511.474h0a1.269,1.269,0,0,0,1.733-.465h0l2.538-4.4a1.269,1.269,0,1,0-2.189-1.283h0l-.008.014-2.538,4.4A1.27,1.27,0,0,0,520.483,511.474Z" transform="translate(-8.937 -0.801)" fill="#ffce00"/>
    <path id="Caminho_41" data-name="Caminho 41" d="M506.152,558.3a1.268,1.268,0,0,0,1.269-1.269h0V543.072h2.538A5.075,5.075,0,1,0,504.884,538v2.539h-2.538V538a5.075,5.075,0,1,0-5.075,5.076h2.538v13.956a1.269,1.269,0,1,0,2.538,0V543.072h2.54v13.956A1.269,1.269,0,0,0,506.152,558.3Zm1.269-20.3a2.538,2.538,0,1,1,2.538,2.538h-2.538Zm-7.613,2.538H497.27A2.538,2.538,0,1,1,499.808,538Z" transform="translate(-4.226 -5.609)" fill="#ffce00"/>
    <path id="Caminho_42" data-name="Caminho 42" d="M502.536,512.259a21.715,21.715,0,0,0-22.873,20.436,21.34,21.34,0,0,0,7.965,17.644,3.982,3.982,0,0,1,1.56,3.07v3.153a4.035,4.035,0,0,0,2.731,3.782v1.59a3.97,3.97,0,0,0,1.065,2.686,3.921,3.921,0,0,0,0,5.373,3.968,3.968,0,0,0,.2,5.607l.068.061a4.116,4.116,0,0,0,2.767,1.048,1.321,1.321,0,0,0,1.366-1.275,1.292,1.292,0,0,0-.243-.789.878.878,0,0,0-.533-.477c-.04-.02-.083-.037-.12-.052a1.487,1.487,0,0,0-.43-.084c-.013,0-.026-.008-.04-.008a1.344,1.344,0,0,1,0-2.687h5.462a1.343,1.343,0,1,0,0-2.686h-5.462a1.343,1.343,0,1,1,0-2.686h5.462a1.343,1.343,0,1,0,0-2.686h-5.465a1.355,1.355,0,0,1-1.366-1.343v-1.343h6.828a1.343,1.343,0,1,0,0-2.686h-8.2a1.354,1.354,0,0,1-1.366-1.343v-3.153a6.636,6.636,0,0,0-2.56-5.151,18.594,18.594,0,0,1-2.9-26.137q.132-.166.268-.329a19.172,19.172,0,0,1,33.87,11.821,18.575,18.575,0,0,1-7.094,14.726,6.62,6.62,0,0,0-2.465,5.227v2.994a1.353,1.353,0,0,1-1.366,1.343h-4.1a1.343,1.343,0,0,0,0,2.686h2.733v1.343a1.354,1.354,0,0,1-1.366,1.343h-1.366a1.343,1.343,0,0,0,0,2.686h1.367a1.343,1.343,0,0,1,0,2.686h-1.366a1.343,1.343,0,0,0,0,2.686h1.366a1.344,1.344,0,0,1,0,2.687h-6.828a1.343,1.343,0,0,0,0,2.686h5.227a4.13,4.13,0,0,1-6.925,1.334,1.382,1.382,0,0,0-1.928-.11,1.328,1.328,0,0,0-.133,1.873l.021.024a6.893,6.893,0,0,0,9.618.564,6.673,6.673,0,0,0,2.2-3.9,3.96,3.96,0,0,0,1.782-6.5,3.92,3.92,0,0,0,0-5.373,3.966,3.966,0,0,0,1.065-2.686v-1.59a4.034,4.034,0,0,0,2.731-3.782v-2.994a4.011,4.011,0,0,1,1.449-3.139,21.232,21.232,0,0,0,8.11-16.837A21.9,21.9,0,0,0,502.536,512.259Z" transform="translate(-2.087 -2.083)"/>
  </g>
</svg>
