<svg xmlns="http://www.w3.org/2000/svg" width="96.16" height="114" viewBox="0 0 96.16 114">
  <g id="icon-projetos" class="inverter" transform="translate(-670.5 -504)">
    <path id="Caminho_43" data-name="Caminho 43" d="M690.21,515.16a3.457,3.457,0,0,0-3.455,3.455v15.6l3.34,3.34v-18.94a.115.115,0,0,1,.115-.115H740.3v-3.34Zm71.4,0H750.781v3.34h10.827a.115.115,0,0,1,.115.115V602.5a9.042,9.042,0,0,1-17.993,1.28,3.456,3.456,0,0,0-3.4-2.956H679.678a3.5,3.5,0,0,0-2.7,1.28,3.316,3.316,0,0,0-.7,2.764,12.391,12.391,0,0,0,12.158,10.008h64.256A12.376,12.376,0,0,0,765.063,602.5V518.615A3.457,3.457,0,0,0,761.607,515.16Zm-73.189,96.391a9.068,9.068,0,0,1-8.869-7.294.185.185,0,0,1,.128-.09h60.647a.109.109,0,0,1,.1.09,12.278,12.278,0,0,0,3.814,7.282Z" transform="translate(1.598 3.122)"/>
    <path id="Caminho_89" data-name="Caminho 89" d="M741.18,586.265l-46.314-46.314-3.174-3.174-18.339-18.339a1.672,1.672,0,0,0-2.355-.026,1.706,1.706,0,0,0-.5,1.2v67.827a1.66,1.66,0,0,0,1.664,1.664h16.189v.013H740a1.668,1.668,0,0,0,1.677-1.651A1.705,1.705,0,0,0,741.18,586.265Zm-67.34-.486V523.647l62.132,62.132Z" transform="translate(0 3.9)" fill="#ffce00"/>
    <path id="Caminho_90" data-name="Caminho 90" d="M687.79,573.56v5.465a1.67,1.67,0,0,1-3.34,0V573.56Z" transform="translate(3.903 19.459)"/>
    <path id="Caminho_91" data-name="Caminho 91" d="M733.316,504h-3.571a3.457,3.457,0,0,0-3.455,3.455V561a1.818,1.818,0,0,0,.064.461l3.57,12.5a1.666,1.666,0,0,0,3.212,0l3.57-12.5a1.9,1.9,0,0,0,.064-.461V530.657a1.67,1.67,0,0,0-3.34,0v26.888h-3.8V514.481h3.8v9.035a1.67,1.67,0,1,0,3.34,0V507.455A3.457,3.457,0,0,0,733.316,504Zm.077,56.885-1.856,6.527-1.869-6.527Zm.038-49.744h-3.8v-3.686a.115.115,0,0,1,.115-.115h3.571a.115.115,0,0,1,.115.115Z" transform="translate(15.607 0)" fill="#ffce00"/>
    <path id="Caminho_92" data-name="Caminho 92" d="M713.142,569.8l-31.61-31.61a1.637,1.637,0,0,0-2.316,0,1.681,1.681,0,0,0-.486,1.164v31.61a1.655,1.655,0,0,0,1.651,1.651h31.61a1.644,1.644,0,0,0,1.638-1.651A1.681,1.681,0,0,0,713.142,569.8Zm-31.123-.474v-26l26,26Z" transform="translate(2.302 9.432)" fill="#ffce00"/>
    <path id="Caminho_93" data-name="Caminho 93" d="M687.509,548.309v18.979H684.22V545.02Z" transform="translate(3.838 11.475)"/>
  </g>
</svg>
